<svg width="36" height="36" viewBox="0 0 36 36" fill="none" xmlns="http://www.w3.org/2000/svg">
<g clip-path="url(#clip0_3998_184)">
<path d="M9.15738 9.72189L6.03848 9.96285C5.17062 10.0299 4.39768 10.4848 3.91773 11.2107L0.320781 16.6509C-0.0432243 17.2015 -0.101091 17.8905 0.165883 18.494C0.432928 19.0976 0.981713 19.5182 1.63386 19.6192L4.48958 20.0615C5.15761 16.5163 6.75678 12.9799 9.15738 9.72189Z" fill="#93D5E1"/>
<path d="M15.9385 31.5104L16.3808 34.3661C16.4818 35.0182 16.9025 35.567 17.5059 35.834C17.757 35.9451 18.0228 35.9999 18.2872 35.9999C18.6587 35.9999 19.0276 35.8917 19.3491 35.6791L24.7894 32.0822C25.5154 31.6022 25.9702 30.8292 26.0372 29.9615L26.2781 26.8426C23.02 29.2432 19.4837 30.8424 15.9385 31.5104Z" fill="#93D5E1"/>
<path d="M14.8645 29.531C14.9636 29.531 15.0633 29.5229 15.1628 29.5063C16.6481 29.2579 18.0796 28.8396 19.4452 28.292L7.70803 16.5548C7.16044 17.9203 6.74209 19.3519 6.49375 20.8372C6.39587 21.4227 6.59225 22.0192 7.01195 22.4389L13.5611 28.9881C13.9095 29.3365 14.3799 29.531 14.8645 29.531Z" fill="#93D5E1"/>
<path d="M33.1295 15.961C36.0017 10.4082 36.1081 4.54025 35.958 1.78824C35.9066 0.84529 35.1548 0.0935149 34.2118 0.0421169C33.7637 0.0176483 33.2326 0 32.634 0C29.5568 0 24.6876 0.466098 20.039 2.87056C16.3447 4.78142 11.5004 8.98896 8.64233 14.5184C8.67608 14.5448 8.70906 14.5728 8.74014 14.6039L21.3963 27.26C21.4274 27.2911 21.4553 27.324 21.4816 27.3577C27.0111 24.4996 31.2187 19.6554 33.1295 15.961ZM20.9318 7.61057C22.9878 5.55457 26.3333 5.55436 28.3894 7.61057C29.3855 8.60653 29.934 9.93086 29.934 11.3394C29.934 12.748 29.3855 14.0723 28.3894 15.0683C27.3616 16.0962 26.0109 16.6102 24.6607 16.6104C23.31 16.6104 21.96 16.0964 20.9318 15.0683C19.9358 14.0723 19.3872 12.748 19.3872 11.3394C19.3872 9.93086 19.9358 8.60653 20.9318 7.61057Z" fill="#93D5E1"/>
<path d="M22.4233 13.5767C23.6569 14.8103 25.6644 14.8104 26.898 13.5767C27.4956 12.9791 27.8247 12.1845 27.8247 11.3394C27.8247 10.4942 27.4956 9.69968 26.898 9.10209C26.2812 8.48524 25.4709 8.17685 24.6606 8.17685C23.8504 8.17685 23.0402 8.48524 22.4234 9.10209C21.8258 9.69968 21.4966 10.4942 21.4966 11.3394C21.4966 12.1845 21.8257 12.9791 22.4233 13.5767Z" fill="#93D5E1"/>
<path d="M1.07621 29.6673C1.34614 29.6673 1.61607 29.5644 1.82194 29.3584L5.26536 25.915C5.67725 25.5031 5.67725 24.8353 5.26536 24.4234C4.85354 24.0115 4.18571 24.0115 3.77382 24.4234L0.330402 27.8668C-0.0814883 28.2787 -0.0814883 28.9465 0.330402 29.3584C0.536348 29.5643 0.806277 29.6673 1.07621 29.6673Z" fill="#93D5E1"/>
<path d="M8.42097 27.5791C8.00915 27.1672 7.34133 27.1672 6.92944 27.5791L0.309162 34.1994C-0.102729 34.6113 -0.102729 35.279 0.309162 35.6909C0.515107 35.8968 0.785037 35.9998 1.05497 35.9998C1.3249 35.9998 1.59483 35.8968 1.8007 35.6908L8.4209 29.0706C8.83286 28.6587 8.83286 27.991 8.42097 27.5791Z" fill="#93D5E1"/>
<path d="M10.085 30.7348L6.64168 34.1782C6.22979 34.5901 6.22979 35.2578 6.64168 35.6697C6.84763 35.8757 7.11756 35.9787 7.38742 35.9787C7.65728 35.9787 7.92728 35.8757 8.13315 35.6697L11.5766 32.2263C11.9885 31.8144 11.9885 31.1467 11.5766 30.7348C11.1647 30.3229 10.4969 30.3229 10.085 30.7348Z" fill="#93D5E1"/>
</g>
<defs>
<clipPath id="clip0_3998_184">
<rect width="36" height="36" fill="white"/>
</clipPath>
</defs>
</svg>
