<svg width="24" height="24" viewBox="0 0 24 24" fill="none" xmlns="http://www.w3.org/2000/svg">
<path d="M12 1.5C6.201 1.5 1.5 6.201 1.5 12C1.5 17.799 6.201 22.5 12 22.5C17.799 22.5 22.5 17.799 22.5 12C22.5 6.201 17.799 1.5 12 1.5ZM16.6298 8.3265L14.8822 13.302C14.6228 14.0415 14.0408 14.6235 13.3013 14.8837L8.32575 16.6312C7.73175 16.8397 7.161 16.269 7.3695 15.675L9.117 10.6995C9.3765 9.96 9.9585 9.378 10.6988 9.11775L15.6742 7.37025C16.2675 7.16175 16.8383 7.7325 16.6298 8.3265Z" fill="#93D5E1"/>
<path d="M12.0001 12.9608C12.5307 12.9608 12.9608 12.5307 12.9608 12.0001C12.9608 11.4694 12.5307 11.0393 12.0001 11.0393C11.4694 11.0393 11.0393 11.4694 11.0393 12.0001C11.0393 12.5307 11.4694 12.9608 12.0001 12.9608Z" fill="#93D5E1"/>
</svg>
