<svg width="36" height="36" viewBox="0 0 36 36" fill="none" xmlns="http://www.w3.org/2000/svg">
<g clip-path="url(#clip0_3998_157)">
<path d="M28.0828 30.607C28.0828 31.3875 27.45 32.0203 26.6695 32.0203H1.41328C0.632812 32.0203 0 31.3875 0 30.607C0 25.1859 4.40859 20.7844 9.82266 20.7844H18.2531C23.6742 20.7844 28.0828 25.193 28.0828 30.607Z" fill="#93D5E1"/>
<path d="M14.0415 19.5891C18.3519 19.5891 21.8462 16.0948 21.8462 11.7844C21.8462 7.47395 18.3519 3.97968 14.0415 3.97968C9.73109 3.97968 6.23682 7.47395 6.23682 11.7844C6.23682 16.0948 9.73109 19.5891 14.0415 19.5891Z" fill="#93D5E1"/>
<path d="M34.5867 14.5406H31.2046V11.1586C31.2046 10.3781 30.5718 9.7453 29.7914 9.7453C29.0109 9.7453 28.3851 10.3781 28.3781 11.1586V14.5406H24.996C24.2156 14.5406 23.5828 15.1734 23.5828 15.9539C23.5828 16.7344 24.2156 17.3672 24.996 17.3672H28.3781V20.7422C28.3781 21.5226 29.0109 22.1555 29.7914 22.1555C30.5718 22.1555 31.2046 21.5226 31.2046 20.7422V17.3672H34.5867C35.3671 17.3672 36 16.7344 36 15.9539C36 15.1734 35.3671 14.5406 34.5867 14.5406Z" fill="#93D5E1"/>
</g>
<defs>
<clipPath id="clip0_3998_157">
<rect width="36" height="36" fill="white"/>
</clipPath>
</defs>
</svg>
