<svg width="24" height="24" viewBox="0 0 24 24" fill="none" xmlns="http://www.w3.org/2000/svg">
<g clip-path="url(#clip0_3998_215)">
<path d="M6.10492 6.48126L4.02565 6.6419C3.44708 6.68662 2.93179 6.98985 2.61182 7.47383L0.213854 11.1006C-0.0288162 11.4676 -0.067394 11.927 0.110589 12.3293C0.288619 12.7317 0.654475 13.0121 1.08924 13.0795L2.99305 13.3743C3.43841 11.0109 4.50452 8.65329 6.10492 6.48126Z" fill="#93D5E1"/>
<path d="M10.6257 21.0069L10.9206 22.9107C10.988 23.3455 11.2684 23.7113 11.6707 23.8893C11.8381 23.9634 12.0153 24 12.1916 24C12.4392 24 12.6851 23.9278 12.8995 23.7861L16.5264 21.3881C17.0103 21.0681 17.3136 20.5528 17.3582 19.9743L17.5188 17.895C15.3468 19.4955 12.9892 20.5616 10.6257 21.0069Z" fill="#93D5E1"/>
<path d="M9.90972 19.6873C9.97581 19.6873 10.0423 19.6819 10.1086 19.6708C11.0988 19.5053 12.0532 19.2264 12.9636 18.8613L5.13877 11.0365C4.77371 11.9469 4.49481 12.9013 4.32925 13.8915C4.264 14.2818 4.39492 14.6794 4.67471 14.9593L9.0408 19.3254C9.27311 19.5576 9.58666 19.6873 9.90972 19.6873Z" fill="#93D5E1"/>
<path d="M22.0863 10.6407C24.0011 6.93881 24.072 3.02684 23.9719 1.19216C23.9376 0.563527 23.4364 0.0623433 22.8078 0.0280779C22.509 0.0117655 22.155 0 21.7559 0C19.7044 0 16.4583 0.310732 13.3592 1.9137C10.8964 3.18762 7.66683 5.99264 5.76147 9.67896C5.78397 9.69653 5.80596 9.71519 5.82668 9.73591L14.2641 18.1733C14.2848 18.1941 14.3034 18.216 14.321 18.2385C18.0073 16.3331 20.8124 13.1036 22.0863 10.6407ZM13.9545 5.07371C15.3251 3.70305 17.5555 3.70291 18.9262 5.07371C19.5902 5.73769 19.9559 6.62057 19.9559 7.55961C19.9559 8.49865 19.5902 9.38154 18.9262 10.0455C18.241 10.7308 17.3405 11.0735 16.4404 11.0736C15.5399 11.0736 14.6399 10.731 13.9545 10.0455C13.2904 9.38154 12.9247 8.49865 12.9247 7.55961C12.9247 6.62057 13.2904 5.73769 13.9545 5.07371Z" fill="#93D5E1"/>
<path d="M14.9489 9.05114C15.7713 9.87357 17.1096 9.87361 17.932 9.05114C18.3304 8.65271 18.5498 8.12302 18.5498 7.55958C18.5498 6.99615 18.3304 6.46646 17.932 6.06807C17.5208 5.65683 16.9806 5.45124 16.4404 5.45124C15.9003 5.45124 15.3601 5.65683 14.9489 6.06807C14.5505 6.46646 14.3311 6.99615 14.3311 7.55958C14.3311 8.12302 14.5505 8.65275 14.9489 9.05114Z" fill="#93D5E1"/>
<path d="M0.717309 19.7782C0.897262 19.7782 1.07721 19.7096 1.21446 19.5723L3.51007 17.2766C3.78467 17.002 3.78467 16.5569 3.51007 16.2823C3.23553 16.0077 2.79031 16.0077 2.51571 16.2823L0.220105 18.5779C-0.0544883 18.8525 -0.0544883 19.2977 0.220105 19.5723C0.357402 19.7095 0.537355 19.7782 0.717309 19.7782Z" fill="#93D5E1"/>
<path d="M5.61406 18.3861C5.33952 18.1115 4.8943 18.1115 4.61971 18.3861L0.206189 22.7996C-0.0684043 23.0742 -0.0684043 23.5193 0.206189 23.7939C0.343486 23.9312 0.523439 23.9999 0.703393 23.9999C0.883346 23.9999 1.0633 23.9312 1.20055 23.7939L5.61402 19.3804C5.88866 19.1058 5.88866 18.6607 5.61406 18.3861Z" fill="#93D5E1"/>
<path d="M6.72343 20.4898L4.42787 22.7854C4.15328 23.06 4.15328 23.5052 4.42787 23.7798C4.56517 23.9171 4.74512 23.9858 4.92503 23.9858C5.10493 23.9858 5.28493 23.9172 5.42218 23.7798L7.71779 21.4842C7.99239 21.2096 7.99239 20.7644 7.71779 20.4898C7.44324 20.2152 6.99803 20.2152 6.72343 20.4898Z" fill="#93D5E1"/>
</g>
<defs>
<clipPath id="clip0_3998_215">
<rect width="24" height="24" fill="white"/>
</clipPath>
</defs>
</svg>
