<svg width="24" height="24" viewBox="0 0 24 24" fill="none" xmlns="http://www.w3.org/2000/svg">
<g clip-path="url(#clip0_3998_206)">
<path d="M6.10492 6.4812L4.02565 6.64184C3.44708 6.68656 2.93179 6.98979 2.61182 7.47377L0.213854 11.1006C-0.0288162 11.4676 -0.067394 11.9269 0.110589 12.3293C0.288619 12.7317 0.654475 13.0121 1.08924 13.0794L2.99305 13.3743C3.43841 11.0108 4.50452 8.65323 6.10492 6.4812Z" fill="#93D5E1"/>
<path d="M10.6255 21.0069L10.9204 22.9107C10.9877 23.3455 11.2681 23.7113 11.6705 23.8893C11.8379 23.9634 12.015 23.9999 12.1913 23.9999C12.439 23.9999 12.6849 23.9278 12.8992 23.786L16.5261 21.3881C17.0101 21.0681 17.3133 20.5528 17.358 19.9743L17.5186 17.895C15.3465 19.4955 12.989 20.5616 10.6255 21.0069Z" fill="#93D5E1"/>
<path d="M9.90947 19.6873C9.97557 19.6873 10.042 19.6819 10.1084 19.6708C11.0985 19.5052 12.0529 19.2263 12.9633 18.8613L5.13853 11.0365C4.77347 11.9469 4.49456 12.9012 4.329 13.8914C4.26375 14.2818 4.39467 14.6794 4.67447 14.9592L9.04056 19.3253C9.27287 19.5576 9.58641 19.6873 9.90947 19.6873Z" fill="#93D5E1"/>
<path d="M22.0865 10.6407C24.0013 6.93881 24.0722 3.02684 23.9721 1.19216C23.9379 0.563527 23.4367 0.0623433 22.808 0.0280779C22.5093 0.0117655 22.1552 0 21.7562 0C19.7047 0 16.4586 0.310732 13.3595 1.9137C10.8966 3.18762 7.66708 5.99264 5.76172 9.67896C5.78422 9.69653 5.8062 9.71519 5.82692 9.73591L14.2644 18.1733C14.2851 18.1941 14.3037 18.216 14.3213 18.2385C18.0076 16.3331 20.8126 13.1036 22.0865 10.6407ZM13.9547 5.07371C15.3254 3.70305 17.5557 3.70291 18.9265 5.07371C19.5905 5.73769 19.9562 6.62057 19.9562 7.55961C19.9562 8.49865 19.5905 9.38154 18.9265 10.0455C18.2412 10.7308 17.3407 11.0735 16.4406 11.0736C15.5402 11.0736 14.6401 10.731 13.9547 10.0455C13.2907 9.38154 12.925 8.49865 12.925 7.55961C12.925 6.62057 13.2907 5.73769 13.9547 5.07371Z" fill="#93D5E1"/>
<path d="M14.9489 9.0512C15.7713 9.87362 17.1096 9.87367 17.932 9.0512C18.3304 8.65276 18.5498 8.12308 18.5498 7.55964C18.5498 6.9962 18.3304 6.46651 17.932 6.06812C17.5208 5.65689 16.9806 5.45129 16.4404 5.45129C15.9003 5.45129 15.3601 5.65689 14.9489 6.06812C14.5505 6.46651 14.3311 6.9962 14.3311 7.55964C14.3311 8.12308 14.5505 8.65281 14.9489 9.0512Z" fill="#93D5E1"/>
<path d="M0.717309 19.7782C0.897262 19.7782 1.07721 19.7096 1.21446 19.5722L3.51007 17.2766C3.78467 17.002 3.78467 16.5568 3.51007 16.2822C3.23553 16.0076 2.79031 16.0076 2.51571 16.2822L0.220105 18.5778C-0.0544883 18.8524 -0.0544883 19.2976 0.220105 19.5722C0.357402 19.7095 0.537355 19.7782 0.717309 19.7782Z" fill="#93D5E1"/>
<path d="M5.61382 18.3861C5.33927 18.1115 4.89405 18.1115 4.61946 18.3861L0.205945 22.7996C-0.0686484 23.0742 -0.0686484 23.5194 0.205945 23.794C0.343242 23.9313 0.523195 23.9999 0.703148 23.9999C0.883102 23.9999 1.06305 23.9313 1.2003 23.7939L5.61377 19.3805C5.88841 19.1059 5.88841 18.6607 5.61382 18.3861Z" fill="#93D5E1"/>
<path d="M6.72319 20.4899L4.42763 22.7855C4.15303 23.0601 4.15303 23.5053 4.42763 23.7799C4.56492 23.9171 4.74488 23.9858 4.92478 23.9858C5.10469 23.9858 5.28469 23.9172 5.42194 23.7799L7.71755 21.4842C7.99214 21.2096 7.99214 20.7645 7.71755 20.4899C7.443 20.2153 6.99778 20.2153 6.72319 20.4899Z" fill="#93D5E1"/>
</g>
<defs>
<clipPath id="clip0_3998_206">
<rect width="24" height="24" fill="white"/>
</clipPath>
</defs>
</svg>
