<svg width="36" height="36" viewBox="0 0 36 36" fill="none" xmlns="http://www.w3.org/2000/svg">
<path d="M28.6691 18.8546L15.2809 32.2428C15.1248 32.3988 14.9539 32.5474 14.7756 32.6812C14.9985 32.7406 15.2288 32.7703 15.4666 32.7703H28.0524C29.5755 32.7703 30.8163 31.5296 30.8163 30.0065V18.7506C30.2219 18.7134 29.6127 18.6391 28.9812 18.5202C28.8846 18.6317 28.7806 18.7431 28.6691 18.8546Z" fill="#93D5E1"/>
<path d="M34.3306 10.0876C34.3083 10.0653 34.286 10.043 34.2638 10.0207C33.023 8.77993 31.2176 7.63576 29.167 6.78135C28.7955 6.62533 28.4166 6.48416 28.0377 6.35786V6.33557C28.0154 4.69361 26.6929 3.37113 25.051 3.34884L17.0269 3.22997C15.9645 3.21511 14.9392 3.63117 14.1888 4.38157L0.807976 17.7773C-0.269325 18.8546 -0.269325 20.608 0.807976 21.6853L9.70872 30.586C10.786 31.6633 12.5394 31.6633 13.6167 30.586L27.0124 17.1903C27.3987 16.804 27.6885 16.3508 27.8891 15.853C29.2339 16.2319 30.5415 16.4325 31.6931 16.4251C34.5461 16.4102 35.4897 15.162 35.8017 14.419C36.1063 13.6761 36.3292 12.1233 34.3306 10.0876ZM17.755 17.6881C17.443 17.859 17.1235 18.0447 16.804 18.2082C16.4994 18.3642 16.3954 18.3271 16.284 18.0001C16.0536 17.3463 15.6822 16.7891 15.1695 16.3285C15.0358 16.2096 14.8946 16.0982 14.7237 16.0313C14.1145 15.7935 13.5796 16.1873 13.6539 16.8411C13.691 17.168 13.795 17.4801 13.9213 17.7847C14.1368 18.3122 14.3671 18.8397 14.5231 19.3895C15.0284 21.1429 13.9139 22.8666 12.1531 23.0375C11.5141 23.0969 10.9049 22.9632 10.3477 22.6437C10.1025 22.5025 9.91675 22.5174 9.731 22.7254C9.54526 22.926 9.33723 23.1118 9.14406 23.3049C8.97318 23.4758 8.78744 23.4832 8.61655 23.3124C8.40109 23.1118 8.19306 22.8963 7.98503 22.6883C7.80672 22.5025 7.82158 22.3094 7.99989 22.131C8.14106 21.9899 8.28222 21.8413 8.42338 21.7001C8.73543 21.3806 8.73543 21.3584 8.48282 21.0092C8.15592 20.5634 7.86616 20.0953 7.68785 19.5678C7.54668 19.1592 7.58383 19.0552 7.95531 18.8471C8.23021 18.6911 8.50511 18.5351 8.78744 18.3865C9.11434 18.2156 9.21093 18.2528 9.32237 18.6019C9.50811 19.1963 9.81273 19.7238 10.1916 20.2142C10.4368 20.5337 10.7414 20.7714 11.1129 20.92C11.8113 21.1949 12.4503 20.7045 12.376 19.9616C12.3537 19.709 12.2794 19.4638 12.1828 19.226C11.945 18.6168 11.6404 18.0299 11.4844 17.3835C11.2244 16.3433 11.3432 15.3923 12.1828 14.6494C13.1338 13.8098 14.1962 13.7578 15.3181 14.2779C15.7788 14.4933 15.7788 14.5008 16.1354 14.1441C16.2543 14.0253 16.3731 13.9064 16.4994 13.7875C16.7743 13.5275 16.8635 13.5275 17.1384 13.7875C17.2201 13.8693 17.3018 13.951 17.3836 14.0327C17.9482 14.5974 17.9482 14.5974 17.3836 15.1694C16.9824 15.5706 16.9824 15.5706 17.3167 16.0313C17.5767 16.3879 17.7773 16.7668 17.9334 17.1755C18.0151 17.3983 17.9705 17.5692 17.755 17.6881ZM33.6471 13.5275C33.3945 14.1293 30.6975 14.6568 26.6038 12.948C25.4002 12.4502 24.2857 11.8261 23.3719 11.1574C23.3422 11.1946 23.305 11.2317 23.2753 11.2689C22.3837 12.1604 20.9275 12.1604 20.0359 11.2689C19.1444 10.3773 19.1444 8.92109 20.0359 8.02953C20.9275 7.13797 22.3837 7.13797 23.2753 8.02953C23.8102 8.56447 24.0183 9.29258 23.9217 9.98353C24.7984 10.6076 25.8534 11.1797 26.9753 11.6478C27.3765 11.8112 27.7554 11.9598 28.1269 12.0861L28.0823 8.86166C28.1491 8.89137 28.2086 8.91366 28.2754 8.94338C30.0289 9.67149 31.6039 10.6671 32.6218 11.6849C32.6367 11.6998 32.6515 11.7146 32.6664 11.7295C33.6322 12.7028 33.7288 13.3269 33.6471 13.5275Z" fill="#93D5E1"/>
</svg>
