<svg width="24" height="24" viewBox="0 0 24 24" fill="none" xmlns="http://www.w3.org/2000/svg">
<path d="M18.985 4.87497L12.985 2.57397C12.35 2.33097 11.651 2.33097 11.016 2.57397L5.01598 4.87497C3.95998 5.27997 3.25098 6.31197 3.25098 7.44197V10.278C3.25098 15.248 6.37698 19.759 11.035 21.506C11.346 21.623 11.673 21.681 12 21.681C12.327 21.681 12.657 21.622 12.971 21.504C17.625 19.759 20.751 15.247 20.751 10.277V7.44097C20.751 6.30997 20.042 5.27797 18.986 4.87397L18.985 4.87497ZM15.558 10.502L11.958 14.502C11.815 14.66 11.613 14.75 11.4 14.75C11.187 14.75 10.985 14.66 10.842 14.502L8.44198 11.835C8.16498 11.527 8.18998 11.053 8.49798 10.775C8.80698 10.498 9.27998 10.523 9.55798 10.831L11.4 12.878L14.442 9.49697C14.72 9.18897 15.193 9.16497 15.502 9.44097C15.81 9.71797 15.835 10.193 15.558 10.502Z" fill="#93D5E1"/>
</svg>
