<svg width="143" height="32" viewBox="0 0 143 32" fill="none" xmlns="http://www.w3.org/2000/svg">
<path d="M0 0H12.8001C18.4535 0 21.8669 3.62672 21.8669 9.03124C21.8669 14.7202 18.2401 18.1336 12.8001 18.1336H5.33334V24.8892H0V0ZM12.089 13.5113C14.7556 13.5113 16.5335 11.8402 16.5335 9.06681C16.5335 6.40009 14.8623 4.62229 12.089 4.62229H5.33334V13.5113L12.089 13.5113Z" fill="white"/>
<path d="M22.6016 15.111C22.6016 8.49761 25.9794 4.97754 32.8417 4.97754C36.3618 4.97754 38.3885 5.90201 39.5263 7.6087V5.33311H44.5041V24.8889H39.5263V22.5778C38.3529 24.32 36.3262 25.2445 32.8417 25.2445C25.7305 25.2445 22.6016 21.44 22.6016 15.111ZM33.5528 20.4445C37.3218 20.4445 39.5263 18.5955 39.5263 15.111C39.5263 11.7688 37.4285 9.77764 33.5528 9.77764C29.7839 9.77764 27.5794 11.6265 27.5794 15.111C27.5794 18.4533 29.6772 20.4445 33.5528 20.4445Z" fill="white"/>
<path d="M56.4035 24.8888H51.2122L45.2744 5.33301H50.4655L56.4035 24.8888Z" fill="white"/>
<path d="M54.2349 31.9998L62.3417 5.33276H67.5328L59.4259 31.9998H54.2349Z" fill="#93D5E1"/>
<path d="M79.0226 9.77764C75.8582 9.77764 73.6537 11.3421 73.6537 14.2221V24.8889H68.6758V5.33311H73.6537V7.53758C74.8271 5.86645 76.8182 4.97754 80.0893 4.97754C85.4939 4.97754 89.3695 8.46205 89.3695 14.2221V24.8889H84.3916V14.2221C84.3916 11.4843 82.2939 9.77764 79.0226 9.77764Z" fill="white"/>
<path d="M90.5488 15.111C90.5488 8.49761 94.6377 4.97754 101.5 4.97754C108.611 4.97754 112.451 8.78206 112.451 15.111C112.451 21.7245 108.362 25.2445 101.5 25.2445C94.3889 25.2445 90.5488 21.44 90.5488 15.111ZM101.5 20.4445C105.269 20.4445 107.473 18.5955 107.473 15.111C107.473 11.7688 105.376 9.77764 101.5 9.77764C97.7311 9.77764 95.5267 11.6265 95.5267 15.111C95.5266 18.4533 97.6244 20.4445 101.5 20.4445Z" fill="white"/>
<path d="M119.067 0V24.8892H114.089V0H119.067Z" fill="white"/>
<path d="M120.581 15.111C120.581 8.49761 123.958 4.97754 130.821 4.97754C134.341 4.97754 136.367 5.90201 137.505 7.6087V5.33311H142.483V24.8889H137.505V22.5778C136.332 24.32 134.305 25.2445 130.821 25.2445C123.71 25.2445 120.581 21.44 120.581 15.111ZM131.532 20.4445C135.301 20.4445 137.505 18.5955 137.505 15.111C137.505 11.7688 135.407 9.77764 131.532 9.77764C127.763 9.77764 125.558 11.6265 125.558 15.111C125.558 18.4533 127.656 20.4445 131.532 20.4445Z" fill="white"/>
</svg>
